<svg xmlns="http://www.w3.org/2000/svg" version="1.1" xmlns:xlink="http://www.w3.org/1999/xlink" xmlns:svgjs="http://svgjs.dev/svgjs" width="2000" height="1802" viewBox="0 0 2000 1802"><g transform="matrix(1,0,0,1,-0.8131300076198613,0.7295546558704018)"><svg viewBox="0 0 274 247" data-background-color="#ffffff" preserveAspectRatio="xMidYMid meet" height="1802" width="2000" xmlns="http://www.w3.org/2000/svg" xmlns:xlink="http://www.w3.org/1999/xlink"><g id="tight-bounds" transform="matrix(1,0,0,1,0.11139881104392657,-0.09999999999999432)"><svg viewBox="0 0 273.77720207253884 247.2" height="247.2" width="273.77720207253884"><g><svg viewBox="0 0 273.77720207253884 247.2" height="247.2" width="273.77720207253884"><g><svg viewBox="0 0 273.77720207253884 247.2" height="247.2" width="273.77720207253884"><g><svg viewBox="0 0 273.77720207253884 247.2" height="247.2" width="273.77720207253884"><g><svg viewBox="0 0 273.77720207253884 247.2" height="247.2" width="273.77720207253884"><g><svg viewBox="0 0 273.77720207253884 247.2" height="247.2" width="273.77720207253884"><g transform="matrix(1,0,0,1,0,0)"><svg width="273.77720207253884" viewBox="1.0499999523162842 -35.150001525878906 42.75 38.60000228881836" height="247.2" data-palette-color="#ee3e38"><path d="M35.7-19.8L35.7-19.8 35.35-21.15Q35.35-21.55 35.75-21.55L35.75-21.55Q35.9-21.55 36.15-21.4L36.15-21.4Q37.3-20.55 37.3-19.15 37.3-17.75 35.5-16.43 33.7-15.1 30.95-15.1L30.95-15.1Q30.1-15.1 29.25-15.25L29.25-15.25Q25.8-8.9 20.85-3.55L20.85-3.55Q14.25 3.45 8.85 3.45L8.85 3.45Q1.05 3.45 1.05-5.75L1.05-5.75Q1.05-13.35 5.1-18L5.1-18Q8.5-22 12.9-22L12.9-22Q14.05-22 15.25-21.6L15.25-21.6Q18.2-20.45 18.2-16.73 18.2-13 15.15-8.95 12.1-4.9 8.9-4.9L8.9-4.9Q5.3-4.9 5.3-8.8L5.3-8.8Q5.3-9.9 5.78-11.1 6.25-12.3 6.85-12.3L6.85-12.3Q7.3-12.3 7.3-11.85L7.3-11.85Q7.3-11.6 6.85-10.6 6.4-9.6 6.4-8.83 6.4-8.05 7.23-7.38 8.05-6.7 8.95-6.7L8.95-6.7Q11.9-6.7 14.43-10.33 16.95-13.95 16.95-17.4L16.95-17.4Q16.95-20.05 15.05-20.9L15.05-20.9Q14.4-21.15 13.7-21.15L13.7-21.15Q10.15-21.15 6.6-16.25L6.6-16.25Q3.15-11.3 3.15-5.4L3.15-5.4Q3.15-2.15 4.55-0.1L4.55-0.1Q6 2 8.55 2L8.55 2Q15.15 2 25.75-15.95L25.75-15.95Q20.25-17.6 20.25-22.45L20.25-22.45Q20.25-28.9 26.8-32.75L26.8-32.75Q30.95-35.15 34.85-35.15L34.85-35.15Q37.9-35.15 40.35-34.15L40.35-34.15Q43.8-32.8 43.8-30.05L43.8-30.05Q43.8-29.45 43.53-28.9 43.25-28.35 42.95-28.35L42.95-28.35Q42.3-29 41.4-29L41.4-29Q37.15-29 29.75-16.35L29.75-16.35Q30.15-16.3 30.6-16.3L30.6-16.3Q32.3-16.3 34-17.3 35.7-18.3 35.7-19.8ZM36.05-33.75Q33.5-33.75 30.18-32.27 26.85-30.8 24.88-27.95 22.9-25.1 22.9-21.5 22.9-17.9 26.6-17.2L26.6-17.2Q29.35-21.7 33.7-26.18 38.05-30.65 40.95-30.65L40.95-30.65Q41.7-30.65 42.25-30.3L42.25-30.3Q42.2-31.7 40.3-32.75L40.3-32.75Q38.6-33.75 36.05-33.75Z" opacity="1" transform="matrix(1,0,0,1,0,0)" fill="#ee3e38" class="undefined-text-0" data-fill-palette-color="primary" id="text-0"></path></svg></g></svg></g></svg></g></svg></g></svg></g><g></g></svg></g><defs></defs></svg><rect width="273.77720207253884" height="247.2" fill="none" stroke="none" visibility="hidden"></rect></g></svg></g></svg>